<?xml version='1.0' encoding='utf-8'?>
<svg xmlns="http://www.w3.org/2000/svg" version="1.1" width="600px" height="976px" viewBox="0 0 600 976"> <g id="layer1"> <g> <g style="fill:rgb(0,0,0); fill-opacity:1.0; stroke-linejoin: miter"> <path d="M293.84424,373.96973C293.6222,374.08078,293.3307,374.2751,293.20578,374.38614C293.09473,374.4972,292.88654,374.58044,292.7616,374.58044C292.63672,374.58044,292.51178,374.636,292.45624,374.71927C292.4146,374.78867,292.20642,374.84418,291.99823,374.8303C290.83234,374.80252,290.33264,374.9552,289.73578,375.55206C289.20837,376.0795,289.09735,376.12112,288.6532,376.05173C288.2784,375.99622,288.209,376.01007,288.3617,376.12112C288.48663,376.2044,288.51437,376.2877,288.4311,376.3293C287.69543,376.63467,287.0431,377.0927,287.08475,377.27316C287.15414,377.63403,286.8488,378.09207,286.64056,377.9255C286.43237,377.75894,286.14093,377.98102,286.14093,378.32803C286.14093,378.43906,286.04376,378.66113,285.93274,378.79996C285.82166,378.95264,285.72452,379.18857,285.72452,379.3135C285.72452,379.4523,285.5857,379.60498,285.41916,379.6466C285.2387,379.70215,284.93335,379.92422,284.72516,380.1463C284.47534,380.41,284.2116,380.5488,283.94788,380.5488C283.50372,380.5488,282.7542,381.0485,282.893,381.25668C282.93463,381.32608,283.07346,381.27057,283.19836,381.1179C283.5176,380.75702,284.61414,380.57657,284.61414,380.88193C284.61414,381.00684,284.4337,381.1179,284.1422,381.1873C283.58704,381.28445,283.15674,381.70084,283.0318,382.25604C282.97632,382.492,282.80975,382.6863,282.60156,382.7696C282.40723,382.839,282.25452,382.99167,282.25452,383.11658C282.25452,383.22763,282.04633,383.6579,281.78262,384.06042C281.28296,384.82382,281.07477,385.8648,281.28296,386.44775C281.35236,386.6421,281.28296,386.86417,281.06085,387.15564C280.65836,387.68307,280.6306,387.90515,281.00537,387.55817C281.26904,387.30832,281.28296,387.3222,281.28296,387.5859C281.28296,387.87738,280.88043,388.32156,280.6167,388.32156C280.50568,388.32156,280.45013,388.64078,280.45013,389.30704C280.45013,389.91772,280.50568,390.25085,280.58893,390.19534C280.67224,390.1537,280.72775,390.0149,280.72775,389.90387C280.72775,389.65402,281.01923,389.65402,281.33847,389.88998C281.53278,390.02878,281.56055,390.1537,281.47726,390.41742C281.42175,390.59784,281.38013,390.81992,281.39398,390.91708C281.42175,391.01425,281.49115,391.4723,281.56055,391.95807C281.92145,394.41483,282.32394,396.33026,282.53217,396.59396C282.61542,396.67725,282.72644,397.3296,282.80975,398.05136C282.87915,398.7731,283.0318,399.6614,283.15674,400.05005C283.4482,401.02164,283.43433,401.09106,282.92078,401.09106C282.67096,401.10492,281.90753,401.22986,281.21356,401.38254C278.54858,401.97937,278.59027,401.97937,278.14612,401.7434C276.95242,401.09106,276.9663,401.09106,275.5089,401.29926C274.7455,401.41028,273.7323,401.6046,273.2326,401.72952C272.26102,401.96548,269.08252,403.25632,268.1526,403.79764C267.81946,403.99194,266.4037,405.40768,264.8908,407.07327C261.58737,410.66818,261.25427,411.0707,260.00507,412.81955C258.38113,415.10974,257.5761,415.6094,255.39694,415.7621C254.78622,415.78986,254.09224,415.91476,253.8424,416.02582C253.24557,416.28952,253.17618,416.28952,252.2601,415.73434C251.81595,415.45673,251.05255,415.05423,250.55286,414.83215C249.95602,414.55453,249.59515,414.29083,249.47025,414.05487C249.2898,413.7079,248.63745,413.36087,247.81853,413.2082C247.6242,413.16656,247.2217,413.24985,246.91634,413.37476C246.19458,413.694,244.02933,413.99936,242.50253,413.99936C240.05966,413.99936,238.7966,414.40186,236.99222,415.74823C236.49254,416.123,235.35439,416.95578,234.46606,417.60812C233.57776,418.26047,232.81436,418.89896,232.75885,419.03775C232.71721,419.17654,232.84213,419.59296,233.05032,419.99545C233.35568,420.56454,233.4112,420.84213,233.36957,421.36957C233.32793,421.73044,233.35568,422.11908,233.42508,422.24402C233.49448,422.35504,233.91087,422.5216,234.3828,422.61877C235.50706,422.84085,235.93735,423.2156,236.22882,424.2427C236.35373,424.68686,236.4509,425.15878,236.4509,425.2837C236.4509,425.40863,236.13165,425.8389,235.74303,426.24142C234.86859,427.12973,233.81372,428.5316,233.81372,428.79532C233.81372,428.8925,233.31404,429.55872,232.68945,430.26657C230.14943,433.19525,229.78854,433.94476,229.78854,436.4709C229.78854,437.76172,229.85794,438.3308,230.08002,439.06644C230.27435,439.69104,230.38538,440.48218,230.41315,441.39825C230.45479,442.814,230.62134,443.68845,230.9961,444.49347C231.16266,444.84048,231.16266,444.99316,231.02386,445.25687C230.7185,445.8398,229.6775,447.11676,229.17783,447.53317C228.90024,447.75525,228.45609,448.11612,228.17848,448.3382C227.90088,448.56027,227.49837,449.07385,227.27629,449.47635C227.04033,449.87888,226.76273,450.2814,226.66557,450.36465C226.55453,450.46182,226.45737,450.64227,226.45737,450.76718C226.45737,450.89212,226.13814,451.39178,225.73563,451.87756C225.09714,452.68262,225.01387,452.84918,225.01387,453.4599C224.99998,454.0706,225.04163,454.18164,225.4719,454.5425C226.0965,455.05606,227.01257,455.36142,227.99805,455.36142C228.928,455.36142,228.99739,455.4586,228.87247,456.5551C228.77531,457.27686,228.7892,457.31848,229.26111,457.76266C229.52483,458.01248,230.20494,458.4983,230.77402,458.8314C231.3431,459.16452,231.84277,459.5115,231.89828,459.5948C231.95381,459.66418,232.00934,459.96954,232.00934,460.26105C232.00934,460.55252,232.0926,460.99667,232.20364,461.2465C232.48125,461.89886,233.53612,462.73166,234.23012,462.81494L234.78531,462.89822L234.78531,463.56445C234.78531,464.1474,234.82695,464.24457,235.06291,464.24457C235.21559,464.24457,235.3405,464.2862,235.3405,464.34174C235.3405,465.1745,235.78467,470.0186,235.88182,470.18515C235.95122,470.3101,236.07614,470.93466,236.15942,471.57315C236.3121,472.7113,236.68686,473.83557,236.99222,474.016C237.0755,474.07153,237.1449,474.2381,237.1449,474.39078C237.1449,474.8488,237.6862,475.76486,238.36632,476.43112C238.7272,476.7781,239.12971,477.23615,239.25464,477.43045C239.72655,478.11057,241.11453,479.4014,241.80853,479.79004C243.19653,480.59506,244.88986,482.55215,245.2091,483.70416C245.30627,484.1067,245.45895,484.30103,245.81982,484.46756C246.08354,484.59247,246.3195,484.82843,246.36115,485.00888C246.41666,485.18933,246.63873,485.4808,246.8747,485.64734C247.11066,485.8278,247.37437,486.16092,247.47153,486.383C247.66585,486.84103,249.62292,489.617,250.70554,490.96335C251.06642,491.4214,251.81595,492.39297,252.35725,493.11475C252.89856,493.8365,253.52316,494.586,253.73135,494.78033C253.93956,494.97464,254.25879,495.4188,254.43924,495.77966C254.75848,496.41815,255.41083,497.02887,255.95215,497.19543C256.21588,497.27872,259.81076,501.80356,260.4076,502.81677L260.71295,503.31647L260.1994,504.63504C259.9079,505.3568,259.58868,506.17572,259.46375,506.43945C259.33884,506.70316,258.97797,507.60535,258.64484,508.45203C258.31174,509.28482,258.00638,510.03433,257.95087,510.08984C257.9092,510.15924,257.0209,509.79837,256.00766,509.2987C253.87016,508.2577,252.56546,507.81354,250.33078,507.32776C248.16553,506.85583,245.2091,506.7309,243.39084,507.05014C239.32404,507.74414,236.21494,509.28482,233.71655,511.82483C229.35828,516.23865,226.20753,524.01135,225.48578,532.11725C225.3331,533.81055,225.51355,541.56946,225.7495,543.4293C226.30469,547.70435,226.88765,550.36926,228.10909,554.0197C229.87183,559.308,232.02321,563.4025,235.84018,568.8296C236.7979,570.1759,239.03256,572.85474,240.33727,574.2288C241.43378,575.36694,242.62744,576.4496,244.57063,578.0319C246.01414,579.2256,249.37308,581.0161,251.45506,581.7101C253.82852,582.51514,255.84111,582.8205,258.2423,582.7372C260.477,582.65393,261.64288,582.44574,263.7804,581.724C266.3343,580.84955,268.4163,579.5726,270.10962,577.8515C270.9563,576.99097,271.19226,576.82434,271.8446,576.6717C272.9828,576.3941,273.89886,575.8944,274.2042,575.38086C274.50955,574.8951,274.56506,573.99286,274.34302,573.4099C274.21808,573.0907,274.30136,572.82697,274.98148,571.50836C275.3979,570.6617,275.80038,569.87054,275.86978,569.7456C276.11963,569.3153,276.70258,567.91345,276.70258,567.7886C276.70258,567.5526,277.0357,567.63586,277.57703,568.0106C278.96503,568.95447,280.8388,569.59296,282.2129,569.59296C283.00406,569.59296,284.26715,569.23206,284.89172,568.8157C286.72388,567.59424,288.11188,565.29016,288.6532,562.5836C288.94464,561.1262,288.9724,560.1963,288.76422,558.4474L288.6115,557.1704L289.83295,555.92126C290.51306,555.2273,291.3875,554.42224,291.76227,554.1169C292.15088,553.8115,293.98303,552.0626,295.8568,550.2166C298.54956,547.56555,299.49335,546.74664,300.3678,546.21924L301.4782,545.553L302.5747,545.6224C303.17154,545.664,303.71283,545.7473,303.78226,545.81665C303.83777,545.8722,303.83777,546.35803,303.76837,546.8993C303.4214,549.5504,303.71283,555.5049,304.35132,559.0442C304.50403,559.91864,304.68445,560.9458,304.75385,561.32056C304.87878,562.05615,305.7532,565.29016,306.05856,566.1924C306.16962,566.49774,306.47498,567.3999,306.75256,568.20496C307.44653,570.1759,307.91846,571.39734,308.90393,573.6875C309.3897,574.81177,310.97205,578.0458,311.45782,578.89246C311.79095,579.46155,312.2351,580.23883,312.4433,580.62744C312.98462,581.59906,314.91394,584.47217,315.7467,585.5548C320.34097,591.46765,325.6986,595.8121,332.29156,599.0183C336.2612,600.9337,338.45422,601.6,342.2157,602.0025C345.18597,602.3217,347.69824,602.23846,350.68243,601.711C357.8722,600.42017,363.82666,596.742,368.11554,590.9125C369.08716,589.62164,370.378,587.4286,371.00256,586.04065C371.28015,585.42993,371.57166,584.8192,371.64105,584.6943C371.80762,584.4028,372.7792,581.724,373.07068,580.76624C374.30597,576.7272,374.83344,573.1462,374.9306,568.34375C375.0,564.65173,374.87506,562.05615,374.48642,559.53C374.12555,557.08716,374.0006,556.33765,373.87573,555.92126C373.8063,555.6853,373.6814,555.1301,373.58423,554.67206C373.15396,552.54846,371.71045,547.9542,370.93317,546.17755C370.78052,545.85834,370.66946,545.56683,370.66946,545.5252C370.66946,545.4836,370.51678,545.1227,370.33633,544.7202C370.15588,544.3176,369.86444,543.6376,369.684,543.2212C368.25433,539.93164,365.31183,535.0598,362.93835,532.0201C360.60654,529.0359,357.9416,526.3987,354.91577,524.0669C350.7657,520.86066,347.5178,518.90356,343.67307,517.3074C339.46747,515.55853,335.5811,514.76733,332.01398,514.9478C331.0979,515.0033,330.22345,515.05884,330.07077,515.07275C329.86258,515.10046,329.79315,515.0033,329.72375,514.6008C329.61273,514.00397,329.40454,513.6986,328.98816,513.5737C328.8216,513.5182,328.50235,513.33777,328.28027,513.14343C327.69733,512.6576,326.78125,512.28284,325.8513,512.15796C325.1989,512.0608,324.96295,511.96362,324.6715,511.63052C324.29675,511.20026,323.7693,509.68732,322.992,506.78644C322.89487,506.3978,322.71442,505.71768,322.57562,505.25964C322.4507,504.8016,322.14536,503.60794,321.88165,502.62247C321.61792,501.6231,321.146,499.81873,320.81287,498.5973C320.49365,497.37585,320.22992,496.15442,320.22992,495.89072C320.22992,495.0718,321.20154,493.30905,322.22864,492.26807C323.40842,491.06052,324.38,490.46368,326.36484,489.7003C327.25317,489.35327,328.1831,488.9924,328.40518,488.89526C328.64114,488.7842,329.39066,488.46497,330.07077,488.1735C330.76477,487.8959,331.63922,487.45175,332.01398,487.2019C332.4026,486.96594,332.84674,486.71613,333.0272,486.66058C333.19373,486.61896,333.33255,486.5218,333.33255,486.4524C333.33255,486.16092,333.7767,486.23032,334.13757,486.5912C334.665,487.11862,335.41455,487.56277,335.76154,487.56277C336.1363,487.5489,337.4549,487.10474,338.16275,486.74387C338.4681,486.5912,339.0927,486.11926,339.55072,485.689C340.49457,484.82843,341.53558,484.30103,342.59045,484.1622C343.18726,484.07892,343.4371,484.12057,343.95068,484.37042C344.75568,484.75903,345.13043,484.648,345.13043,484.0373C345.13043,483.45435,344.72794,483.09344,343.74246,482.77423C343.32605,482.6354,342.9513,482.5105,342.93744,482.48273C342.90967,482.46887,343.2289,482.08023,343.64532,481.63608C344.7696,480.45627,345.82446,479.09604,346.06042,478.54086C346.338,477.8885,346.21307,477.30554,345.644,476.54214C345.3664,476.19516,345.1027,475.76486,345.04718,475.59833C344.81122,474.83493,343.7008,473.51633,342.77087,472.9056C342.40997,472.65576,342.063,472.19775,341.5772,471.28168C341.20245,470.58768,340.8832,469.96307,340.85547,469.90756C340.8277,469.85205,341.06366,469.6716,341.38287,469.49115C342.07687,469.10254,342.17404,468.7694,341.8548,467.82556C341.3551,466.2988,339.1621,464.67484,338.14886,465.06348C337.88513,465.16064,337.76025,465.16064,337.67694,465.0357C337.62143,464.93857,336.5249,462.80106,335.26184,460.2888C332.66632,455.12546,330.72314,451.33627,330.55658,451.12805C330.3484,450.86435,328.79382,448.0745,328.47458,447.3805C327.2809,444.79883,326.28156,443.32758,324.4494,441.48154C323.82483,440.85693,322.1731,438.89987,321.74283,438.28915L321.32645,437.69232L321.6457,437.48413C322.1176,437.17877,322.0482,436.49866,321.38196,435.19394C320.84064,434.11133,320.0495,432.7511,319.86905,432.59842C319.81354,432.55676,319.60535,432.20978,319.39716,431.82114C319.18893,431.4325,318.77252,430.93283,318.46716,430.69687C318.17572,430.4609,317.80096,430.12778,317.66214,429.93347C317.16248,429.29498,316.44073,427.68494,315.77448,425.72787C314.8029,422.81308,314.48364,422.24402,313.1373,420.85602C312.4433,420.14813,311.95752,419.52356,311.95752,419.37088C311.95752,418.91284,311.4162,417.49707,310.7777,416.28952C310.40295,415.56778,310.167,414.91544,310.11148,414.4435C310.00043,413.47192,309.6812,412.95837,308.76514,412.22272C307.05792,410.87637,306.59985,410.40445,306.18347,409.6133L305.7532,408.7944L305.91974,407.4064C306.00305,406.643,306.1557,405.86572,306.26675,405.67142C306.6554,404.96353,306.68317,404.40836,306.3778,403.70047C306.2251,403.3257,306.11407,403.00647,306.14185,402.99258C306.16962,402.97873,306.4472,402.82605,306.75256,402.67337C307.59924,402.21533,307.6825,401.8128,307.12732,400.77182C306.69702,399.93903,306.66925,399.85574,306.68317,398.31506L306.68317,396.70502L307.18283,396.19144C307.46045,395.91385,307.8213,395.63626,307.98785,395.5946C308.15442,395.55298,308.3626,395.4003,308.45978,395.24762C308.59857,395.02554,308.55695,394.8312,308.15442,394.04007C307.8213,393.35995,307.66864,392.83252,307.59924,392.06912C307.4882,391.01425,307.21057,389.55685,307.03015,389.1127C306.9746,388.9739,306.98853,388.87674,307.08566,388.87674C307.16895,388.87674,307.23834,388.94614,307.23834,389.02942C307.23834,389.09882,307.29388,389.14047,307.36328,389.09882C307.43268,389.0433,307.43268,388.7796,307.3355,388.44647C307.19672,387.90515,307.21057,387.86353,307.66864,387.41937C308.52917,386.58658,308.76514,386.1424,308.76514,385.39288C308.76514,384.87933,308.84842,384.89322,309.41748,385.43454C309.91718,385.90646,310.00043,385.78152,309.65344,385.1153C309.33423,384.4768,309.47302,384.2964,310.29193,384.2964C310.80548,384.2964,310.9859,384.24088,310.9859,384.0882C310.9859,383.76895,310.2364,383.4636,309.47302,383.4636C308.91782,383.4636,308.76514,383.40808,308.69574,383.19986C308.58472,382.85287,308.94556,382.0062,309.29257,381.78412C309.55627,381.61755,309.55627,381.61755,309.30646,381.36774C308.95947,381.02072,308.97333,380.77087,309.33423,380.86804C309.52853,380.92355,309.3897,380.70148,308.8623,380.1463C308.3765,379.63275,308.07114,379.18857,308.01563,378.8832C307.8352,377.98102,307.51593,377.3842,307.23834,377.45358C306.69702,377.5924,305.43396,376.5514,305.43396,375.95456C305.43396,375.81577,305.35068,375.69086,305.23962,375.69086C305.1286,375.69086,304.9204,375.53818,304.76773,375.34384C304.54565,375.05237,304.39294,375.01074,303.83777,375.02463C303.29645,375.05237,303.1438,374.99686,302.94946,374.73312C302.7135,374.42776,302.65796,374.4139,302.24158,374.5527C302.0056,374.64984,301.4088,374.7609,300.9369,374.80252C300.11798,374.8858,300.04858,374.87195,299.78485,374.53882C299.49335,374.16406,299.3268,374.17795,299.3268,374.59433C299.3268,374.71927,299.22968,374.87195,299.10474,374.91357C298.7161,375.06625,298.35522,374.99686,298.35522,374.78867C298.35522,374.66373,298.25806,374.53882,298.14703,374.4833C297.9527,374.4139,297.9527,374.37225,298.1609,374.15018C298.43848,373.83093,298.2442,373.8032,297.85553,374.09467C297.43915,374.40002,295.8985,374.37225,295.23224,374.02527C294.5799,373.69214,294.38556,373.67825,293.84424,373.96973 Z M294.69092,374.37225C294.38556,374.60822,293.96918,374.64984,293.85815,374.45554C293.73322,374.26123,293.92755,374.16406,294.45496,374.16406C294.92688,374.17795,294.94077,374.19183,294.69092,374.37225 Z M249.9838,416.74756C249.90051,416.81696,249.3453,417.03906,248.7346,417.26114C247.19394,417.80243,244.86212,419.00998,243.68231,419.91217C243.12714,420.32858,242.62744,420.6617,242.55804,420.6617C242.41925,420.6617,242.28046,420.3147,242.28046,419.9677C242.28046,419.82892,242.53029,419.39862,242.83565,419.00998C243.5574,418.09393,244.93152,417.41382,246.81918,417.05292C248.83176,416.66428,250.21976,416.53937,249.9838,416.74756 Z M239.01868,418.96835C239.01868,419.88443,239.07419,420.13428,239.39343,420.68945C239.61551,421.0642,239.94864,421.41122,240.19847,421.52225C240.7953,421.78598,240.75366,422.21625,240.1013,422.61877C239.80983,422.7992,239.43507,423.02127,239.2824,423.11844C239.00479,423.2989,238.96317,423.27112,238.68556,422.6604C238.28305,421.81372,237.2143,420.68945,236.56194,420.42575C236.27046,420.3147,236.0345,420.16202,236.0345,420.09262C236.0345,419.9677,238.75496,417.8857,238.92151,417.8857C238.97704,417.8857,239.01868,418.37152,239.01868,418.96835 Z M298.49402,428.7398C299.16025,429.7114,301.42267,432.01544,302.47754,432.76495C302.94946,433.11197,303.93494,433.7227,304.65668,434.13907L305.98914,434.88858L305.91974,435.4438C305.85034,435.90182,305.93365,436.20718,306.39166,437.19266C306.7109,437.8589,307.05792,438.76108,307.16895,439.20523C307.46045,440.35727,308.1822,442.18942,308.45978,442.50864C308.7235,442.80014,309.6396,443.28592,309.9033,443.28592C310.04208,443.28592,311.3468,442.6891,312.249,442.21716C312.29065,442.18942,312.67926,442.59192,313.09564,443.1055C313.63696,443.7856,314.02563,444.46573,314.44202,445.5067C314.77515,446.31174,315.2193,447.35272,315.44135,447.83853C315.66345,448.31046,315.84387,448.74072,315.84387,448.81012C315.84387,448.86563,316.2464,449.3792,316.7461,449.94827C317.74542,451.1003,318.42554,452.04413,318.91132,453.00186C320.41037,455.97214,320.97943,456.6939,323.90808,459.456C327.21152,462.5512,328.6134,464.078,331.05624,467.22873C332.61078,469.22745,333.0827,469.9492,333.40195,470.7681C333.62402,471.3372,333.87384,471.93402,333.971,472.0867C334.05432,472.23938,334.1792,472.60025,334.22086,472.89172C334.31802,473.39142,334.27637,473.46082,333.6518,474.04376C333.2909,474.40463,332.70795,474.82104,332.36096,475.00146C332.01398,475.18192,331.51428,475.55667,331.25055,475.83426L330.76477,476.33395L330.72314,478.09668C330.6815,480.33136,330.63983,480.48404,330.20956,480.48404C329.95972,480.48404,329.73767,480.6506,329.44617,481.067C329.0853,481.56668,329.0298,481.73322,329.09918,482.17737C329.18246,482.6493,329.1547,482.70483,328.65503,483.03793C328.36353,483.23224,327.7528,483.4682,327.32257,483.55148C326.6563,483.6903,326.4065,483.67642,325.82352,483.4821C325.2683,483.31555,324.82416,483.2739,323.7693,483.3433C322.9226,483.3988,322.06207,483.37106,321.45135,483.26C320.92392,483.17673,319.85516,483.0102,319.06403,482.91302C318.28674,482.80197,317.57886,482.67706,317.4956,482.6354C317.4262,482.5799,317.39844,482.3717,317.44006,482.14963C317.5511,481.66382,317.2735,480.55344,316.96814,480.3036C316.84323,480.19257,316.14923,479.9566,315.4275,479.79004C314.70575,479.6096,313.74802,479.29037,313.31775,479.08215C312.88745,478.86008,312.29065,478.62415,311.99915,478.55472C311.70767,478.47147,311.12473,478.3188,310.68054,478.22162C309.36197,477.8746,308.02948,477.4027,307.51593,477.08347C306.87747,476.68094,306.19736,475.86203,303.6712,472.48923C302.51917,470.96243,301.22833,469.31073,300.7981,468.8388C299.64606,467.5341,297.66122,464.425,296.18994,461.63513C295.8291,460.92728,295.07956,459.76135,294.55212,459.06735C293.96918,458.30396,293.21967,457.05478,292.6922,455.98602C291.51245,453.5987,290.58246,452.22458,289.1251,450.73944C287.5983,449.18488,287.5289,448.99057,288.12573,448.2549L288.5699,447.69974L288.5699,446.00638C288.5699,444.72943,288.51437,444.17422,288.32007,443.68845L288.0841,443.04996L289.3333,441.74527C290.02728,441.0235,290.88782,440.0658,291.24872,439.62164C291.6096,439.1636,292.19257,438.4835,292.53955,438.09485C292.88654,437.7062,293.4001,437.03998,293.67767,436.62357C293.9553,436.20718,294.7187,435.20782,295.37103,434.4028C296.67575,432.79272,296.59247,433.0842,296.34265,431.07162C296.27325,430.50253,296.32874,430.336,296.9811,429.18396C297.3836,428.47607,297.77228,427.93475,297.85553,427.96252C297.93884,427.9903,298.2303,428.33728,298.49402,428.7398 Z M336.9552,483.26C338.28766,483.73193,338.84286,483.77356,339.75894,483.45435C340.1198,483.3294,340.4807,483.26,340.56396,483.28778C340.64725,483.31555,340.4113,483.64865,340.03653,484.0373C339.53687,484.53696,339.13434,484.7868,338.57916,484.96722C337.6631,485.25873,337.64917,485.25873,336.76086,484.995C336.08075,484.8007,334.58173,483.67642,334.58173,483.37106C334.58173,483.31555,334.72052,483.03793,334.8871,482.77423C335.20633,482.3023,335.20633,482.3023,335.4978,482.5799C335.65048,482.7187,336.30286,483.03793,336.9552,483.26 Z M285.6551,483.30164C287.84814,483.954,290.4159,485.45303,290.94336,486.41077C291.16544,486.79938,291.16544,486.95206,291.01276,487.9792C290.9156,488.60376,290.74902,489.4088,290.65186,489.7558C290.54083,490.1167,290.4159,490.5886,290.37427,490.7968L290.29102,491.18542L288.73645,491.10214C287.87592,491.06052,286.6267,490.96335,285.93274,490.88007C285.25262,490.81067,283.58704,490.68576,282.25452,490.61636C280.92206,490.53308,279.7284,490.4359,279.61737,490.40814C279.50635,490.3804,277.97955,490.2555,276.2168,490.13055C274.46793,490.01953,272.69128,489.88074,272.30267,489.83908C271.49762,489.7419,271.7058,490.01953,270.17905,487.22968L269.73486,486.41077L271.12286,485.00888C271.88626,484.24548,272.6219,483.4682,272.76068,483.28778C273.0938,482.88525,273.28815,482.89914,273.84332,483.3988C274.64838,484.13446,275.77264,484.9256,276.56378,485.31424C277.1745,485.6196,277.56314,485.70288,278.52087,485.73065C280.1587,485.80005,280.353,485.70288,283.3927,483.37106C284.1006,482.82974,284.01727,482.82974,285.6551,483.30164 Z M331.66696,484.9256C331.87515,485.03665,331.93066,485.21707,331.9168,485.689C331.90292,486.79938,331.13953,487.2852,327.0727,488.83972C325.82352,489.32553,324.3939,489.93625,323.89423,490.19995C322.7422,490.7968,320.91003,492.62894,320.42426,493.6283C320.22992,494.03082,320.00784,494.36392,319.92456,494.36392C319.67474,494.36392,319.53595,493.30905,319.52203,491.4214C319.52203,489.95013,319.4804,489.60312,319.2861,489.36716C319.14728,489.21448,318.95297,489.08957,318.85583,489.08957C318.74478,489.08957,318.5921,488.9369,318.50882,488.74255C318.37003,488.4511,318.3839,488.3678,318.53656,488.3123C318.91132,488.1596,321.32645,488.35394,321.88165,488.56213C322.38132,488.77032,322.47845,488.77032,322.9226,488.57602C323.4362,488.35394,323.57498,488.3123,324.6021,488.18738C325.12952,488.11798,325.37936,487.9792,325.94843,487.43787C326.51752,486.88266,326.85065,486.7022,327.66956,486.4524C329.29352,485.98047,330.65375,485.32813,330.90356,484.9256C331.0146,484.74518,331.33386,484.74518,331.66696,484.9256 Z M305.86426,488.20126C306.16962,488.57602,307.34937,489.0618,308.1822,489.15897C308.61246,489.21448,309.33423,489.4088,309.79224,489.60312C310.56952,489.93625,310.61115,489.95013,311.11084,489.71417C311.51337,489.5476,311.70767,489.51984,312.01303,489.6309C312.6654,489.88074,312.95685,489.81134,313.51205,489.21448C313.8174,488.89526,314.08112,488.67316,314.12277,488.7148C314.16443,488.75647,314.23383,489.13123,314.27545,489.5615C314.34485,490.2555,314.31708,490.3804,314.05338,490.63025C313.9007,490.7829,313.7619,490.96335,313.7619,491.03275C313.7619,491.36588,314.06726,491.87943,314.53918,492.32358L315.0666,492.8094L314.24768,492.90656C313.72028,492.97595,312.62375,492.9343,311.26352,492.78162C310.08374,492.6567,308.3071,492.49014,307.30774,492.42075C306.32227,492.33746,305.30902,492.2403,305.0592,492.19867L304.6289,492.1154L304.64282,490.13055L304.6706,488.13187L305.01758,488.07635C305.21188,488.04858,305.43396,488.00693,305.51724,487.99304C305.60052,487.99304,305.7671,488.07635,305.86426,488.20126 Z M276.425,493.39233C278.50696,493.5589,281.97693,493.85037,285.4469,494.15573C286.70996,494.26678,288.12573,494.3778,288.6115,494.41943C289.09735,494.4472,289.5276,494.5166,289.56924,494.55826C289.6109,494.59988,289.5415,495.03015,289.4027,495.50208C289.27777,495.98788,289.09735,496.77902,289.00018,497.27872C288.903,497.77838,288.77808,498.30582,288.7226,498.47238C288.52826,499.097,288.38947,502.78903,288.5005,504.41296C288.59766,505.7038,288.73645,506.4533,289.1112,507.61923C289.79132,509.7845,289.86072,510.04822,290.16608,511.94977C290.4159,513.4071,290.4298,513.8513,290.30487,515.1421C290.23547,515.96106,290.11053,517.4878,290.02728,518.51495C289.83295,520.99945,289.37494,526.0101,289.16675,527.74506C289.0418,528.7999,288.91687,529.2996,288.6115,529.84094C287.63995,531.5898,287.1264,534.07434,287.08475,537.2805L287.057,539.4736L287.41785,539.8345C287.9314,540.3619,288.98627,540.584,291.3181,540.68115C292.44238,540.7228,293.35846,540.7922,293.35846,540.81995C293.35846,541.0143,286.07153,550.5775,285.93274,550.5775C285.82166,550.5775,285.71063,550.4526,285.6551,550.3138C285.61346,550.16113,284.97498,549.4671,284.23938,548.7592C282.80975,547.399,282.85138,547.4684,282.32394,545.3031C282.2129,544.8867,281.87976,543.5681,281.56055,542.38837C281.24133,541.20856,280.8943,539.89,280.79715,539.4736C280.7,539.0572,280.50568,538.33545,280.38074,537.8774C279.99213,536.42004,279.39526,534.21313,278.50696,530.79865C277.2439,525.96844,276.85526,524.4694,275.384,518.93134C274.8288,516.84937,274.8149,516.3635,275.3146,515.0866C276.02246,513.2683,276.1474,512.97687,276.63318,512.11633C277.64642,510.3397,277.82684,509.4375,278.18774,504.70444C278.25714,503.67734,278.0767,502.49756,277.64642,501.3733C277.09122,499.88812,274.95374,495.80743,273.76004,493.96143C273.55185,493.6144,273.3714,493.29517,273.3714,493.22577C273.3714,493.15637,273.63513,493.1286,273.96826,493.17026C274.28748,493.2119,275.3979,493.30905,276.425,493.39233 Z M313.0679,496.15442C315.19153,496.30713,315.70508,496.40427,315.88553,496.64023C315.99658,496.82068,316.41296,498.1809,316.8155,499.7077C316.98203,500.31842,317.16248,500.99854,317.23187,501.23447C317.30127,501.45654,317.60663,502.5808,317.912,503.73285C318.21735,504.871,318.53656,506.03693,318.606,506.30063C318.8697,507.17508,318.8003,507.56372,318.25897,508.09113C317.98138,508.36874,316.64893,510.08984,315.2748,511.922C312.77643,515.28094,309.2093,519.9862,306.4472,523.56726C305.61438,524.636,304.83713,525.6631,304.71222,525.8574C304.1015,526.7596,302.01953,529.3968,301.8946,529.4384C301.8113,529.4662,301.65863,529.2441,301.56146,528.9665C301.2561,528.1198,300.0208,526.5653,299.64606,526.5653C299.38232,526.5653,299.42395,526.78735,299.78485,527.1621C300.25677,527.6896,300.97852,528.95264,301.07568,529.4523C301.2006,530.0769,300.9369,530.02136,300.06244,529.2302C299.35455,528.6056,299.3268,528.53625,299.09085,527.3981C298.82715,526.0656,298.81323,523.5256,299.03534,521.0827C299.24353,518.9175,299.5905,517.26575,300.6454,513.31C300.97852,512.08856,301.4782,510.21478,301.7558,509.146C302.0334,508.07727,302.3526,506.85583,302.46368,506.43945C303.24094,503.4969,303.75452,500.7487,304.1015,497.6396C304.21252,496.6541,304.36523,495.80743,304.43463,495.7658C304.57343,495.68253,309.54242,495.9046,313.0679,496.15442 Z M262.2675,505.92587C262.67,506.67538,262.69778,506.78644,262.6145,507.66086C262.48956,508.97946,262.4757,508.99335,261.75394,509.18765C261.37918,509.2987,260.83786,509.46524,260.5464,509.5763C260.24103,509.67346,259.97733,509.74286,259.93567,509.7151C259.86627,509.6318,260.74072,507.25836,260.90726,507.06403C260.96277,506.99463,261.0183,506.85583,261.0183,506.75867C261.0183,506.5366,261.69843,504.9959,261.76782,505.0653C261.7956,505.09308,262.01767,505.48172,262.2675,505.92587 Z M261.80945,511.81094C261.7123,512.1996,261.60126,512.5605,261.54575,512.61597C261.44858,512.71313,259.96344,511.58887,260.00507,511.45007C260.04672,511.32516,261.76782,510.92264,261.87885,511.00592C261.9205,511.06143,261.89273,511.40845,261.80945,511.81094 Z M319.59143,512.89355C319.32773,513.39325,319.52203,513.9068,320.07727,514.1289L320.56305,514.3371L320.56305,515.267C320.56305,516.1137,320.5075,516.30804,319.99396,517.2102C319.46655,518.12634,319.32773,518.2512,318.43942,518.73706C316.96814,519.54205,315.37195,520.7635,313.95624,522.1792C312.12408,524.01135,311.04144,525.44104,309.08438,528.5779C308.9872,528.7305,308.5014,529.6605,307.98785,530.65985C307.4882,531.6453,307.05792,532.492,307.03015,532.5198C306.98853,532.5475,306.75256,532.381,306.48883,532.145C306.2251,531.90906,305.78094,531.6453,305.51724,531.54816C305.23962,531.451,305.01758,531.29834,305.01758,531.215C305.01758,531.07623,306.80807,528.7167,308.69574,526.35706C308.9317,526.05176,310.6528,523.83093,312.52658,521.4297C314.38647,519.0285,315.98267,516.9604,316.07983,516.84937C316.16312,516.7383,316.51013,516.2942,316.84323,515.87775C317.17633,515.46136,317.93976,514.46204,318.55048,513.6709C319.14728,512.86584,319.67474,512.29675,319.70248,512.3939C319.73026,512.4911,319.6886,512.71313,319.59143,512.89355 Z M248.97055,514.07336C250.89987,514.2955,253.81464,515.39197,255.17487,516.41907L255.508,516.66895L254.98056,518.043C254.68909,518.79254,254.36984,519.59753,254.27267,519.8335C254.17552,520.0556,253.39825,522.0543,252.55157,524.2751C251.7049,526.482,250.95538,528.4252,250.88599,528.5779C250.81659,528.7305,250.24751,530.16016,249.6368,531.77026C249.02608,533.36646,248.457,534.80994,248.3876,534.96265C248.3182,535.1153,247.6242,536.8919,246.84694,538.90454C245.91699,541.38904,245.32014,542.73535,245.05643,543.0407C244.83435,543.2905,244.5845,543.76245,244.48737,544.08167C244.40408,544.40094,244.23752,544.7341,244.12648,544.8173C243.83499,545.0255,243.54352,546.52454,243.71008,547.0104C243.79337,547.2602,244.08484,547.51,244.62616,547.8015C245.07031,548.0375,245.5561,548.41223,245.72266,548.6204C246.06967,549.1062,247.59645,550.2444,249.42859,551.3964C250.19199,551.8822,250.83047,552.2986,250.85822,552.3125C250.88599,552.32635,250.71942,552.6456,250.51123,553.0204C250.28915,553.39514,249.99768,553.978,249.845,554.3251C249.70619,554.67206,249.38696,555.2273,249.151,555.5742C248.55417,556.40704,248.19328,557.4203,248.19328,558.1976C248.19328,558.97485,248.74847,559.877,250.1087,561.3622C250.58063,561.87573,251.35791,562.77795,251.84369,563.347C252.3295,563.9161,252.85693,564.54065,253.0235,564.735C253.17618,564.9154,253.6342,565.4567,254.00897,565.9148C256.31302,568.7324,256.99313,569.6207,256.99313,569.78723C256.99313,569.8844,256.896,570.05096,256.78494,570.14813C256.52124,570.37024,256.52124,570.55066,256.79883,570.856C257.00702,571.092,256.99313,571.14746,256.59064,571.6055C256.35468,571.8831,256.16034,572.1607,256.16034,572.2301C256.16034,572.28564,256.1187,572.43835,256.07706,572.5494C256.03543,572.6604,256.10483,572.85474,256.22974,572.9796C256.4518,573.18787,256.50732,573.18787,257.0903,572.85474C257.8537,572.43835,258.048,572.42444,258.2423,572.7714C258.35336,572.9935,258.32562,573.0907,258.02026,573.2989C256.7433,574.20105,256.29913,574.61743,256.1881,575.0477C256.04932,575.5474,255.99377,575.5474,254.63354,575.2837C251.96863,574.7424,250.62227,574.326,248.92892,573.4793C246.5971,572.3134,245.3479,571.4112,243.26593,569.3986C239.92087,566.15076,236.99222,561.66754,234.59099,556.12946C234.29951,555.4771,234.00804,554.8247,233.93863,554.67206C233.3418,553.3674,231.46802,547.5933,231.25983,546.3719L231.16266,545.85834L232.07874,545.85834C233.05032,545.85834,233.53612,545.6918,233.53612,545.3864C233.53612,545.0255,232.52289,544.90063,231.63458,545.15045C231.2043,545.2754,231.17654,545.2615,231.03773,544.7757C230.96834,544.4981,230.89894,543.8596,230.89894,543.36C230.89894,542.8603,230.82954,541.5833,230.74626,540.5146C230.3715,535.2957,230.66298,531.798,231.81502,528.09204C232.4396,526.05176,232.49513,525.89905,232.60617,525.78796C232.66168,525.7325,232.70332,525.57983,232.70332,525.44104C232.70332,525.1079,234.46606,521.67957,235.25723,520.4581C236.20105,519.0285,238.63004,516.62726,239.86536,515.8916C242.55804,514.3093,245.63939,513.6986,248.97055,514.07336 Z M257.27075,517.6683C257.27075,517.7099,257.4928,517.90424,257.75653,518.08466C258.02026,518.26514,258.2423,518.4872,258.2423,518.58435C258.2423,518.6815,258.0619,519.1257,257.8398,519.5698C257.61774,520.02783,257.20135,521.06885,256.92374,521.9155C256.47958,523.20636,256.38242,523.6782,256.3269,524.983C256.29913,525.8574,256.3269,526.829,256.42407,527.2315C256.52124,527.7173,256.5351,528.3003,256.4518,529.02203C256.2575,530.59045,256.02155,534.51843,255.89664,537.89124C255.84111,539.4874,255.74396,540.88934,255.68843,540.9726C255.53575,541.2363,255.00832,541.16693,254.18939,540.7922C252.70425,540.09814,251.74654,540.4313,251.02478,541.8887C250.83047,542.2912,250.76106,542.319,250.05319,542.30505C249.6368,542.30505,248.77625,542.2496,248.15164,542.1802C247.2217,542.09686,246.99962,542.02747,246.99962,541.84705C246.99962,541.7221,247.74913,539.75116,248.67908,537.461C249.59515,535.1708,251.19135,531.2012,252.21844,528.6473C253.24557,526.0934,254.14777,523.87256,254.21716,523.7199C254.28656,523.56726,254.5364,522.9704,254.75848,522.4013C255.54962,520.3332,256.61838,517.7516,256.7433,517.58496C256.86823,517.4323,257.27075,517.4878,257.27075,517.6683 Z M273.14932,523.05365C273.3714,523.9559,273.70453,525.2467,273.88495,525.9407C274.0654,526.6208,274.31525,527.56464,274.42627,528.0227C274.5512,528.4807,274.69,529.0498,274.7733,529.28577C274.84268,529.5078,274.95374,529.97974,275.02313,530.3267C275.09253,530.65985,275.41174,531.93677,275.731,533.1582C276.05023,534.37964,276.39722,535.726,276.4944,536.1424C276.6054,536.55884,276.85526,537.5026,277.06348,538.22437C277.25778,538.94617,277.47986,539.765,277.54926,540.0288C277.60477,540.2925,277.7436,540.8616,277.8685,541.27795C278.64575,544.2483,279.06216,545.9138,279.03442,545.99713C279.00665,546.0526,278.85394,546.0526,278.6874,545.9833C278.46533,545.89996,278.36816,545.7473,278.36816,545.5252C278.36816,544.5259,276.79974,537.6414,276.2862,536.3506C276.2168,536.19794,275.98083,535.4484,275.74487,534.685C275.49503,533.92163,275.2591,533.1721,275.18967,533.0194C275.12027,532.86676,274.85657,532.1727,274.60672,531.4927C274.09317,530.0769,273.42694,528.6056,272.24713,526.2599L271.41434,524.6221L271.85852,523.34515C272.49698,521.4852,272.52472,521.4297,272.64966,521.4297C272.71906,521.4297,272.94113,522.16534,273.14932,523.05365 Z M335.69214,523.5811C341.0775,524.30286,346.06042,526.6208,351.0572,530.71533C352.7644,532.1034,355.58203,534.9487,356.97,536.69763C357.91382,537.8774,359.99582,540.9032,360.7176,542.13855C362.20273,544.7063,364.24307,549.36993,365.0481,552.0349C365.24243,552.71497,365.4784,553.43677,365.5478,553.6311C365.7976,554.3251,366.6304,558.04486,366.93576,559.8076C367.19946,561.3622,367.24112,562.12555,367.255,565.35956C367.255,569.2182,367.1162,570.50903,366.4222,573.6181C365.57553,577.3379,363.89606,581.34924,361.8696,584.44446C360.52325,586.48474,359.1214,588.1226,357.53906,589.4967C356.2066,590.6349,356.16498,590.6765,355.05457,591.4121C350.33542,594.52124,345.11658,595.1736,338.6763,593.4664C336.85803,592.9806,334.41516,591.9951,333.34644,591.32886C333.04108,591.1345,332.73572,590.968,332.66632,590.968C332.472,590.968,329.93198,589.233,328.65503,588.23364C326.6702,586.6652,324.40778,584.65265,321.56238,581.9044L319.99396,580.3915L320.66022,579.60034C321.0211,579.17004,321.3542,578.7953,321.39584,578.75366C321.68732,578.49,322.08984,577.8376,322.08984,577.6294C322.08984,577.11584,321.59015,577.3657,320.56305,578.4067C319.99396,578.97577,319.45264,579.4338,319.3555,579.44763C319.27222,579.44763,318.7309,578.68427,318.14795,577.7405C315.2887,573.0768,313.17896,568.41315,311.83258,563.83276C311.67993,563.2915,311.45782,562.51416,311.33292,562.0978C311.08307,561.2234,310.6667,559.11365,310.40295,557.3092C310.0282,554.7554,310.2503,545.53906,310.7222,544.3593C310.80548,544.165,310.95816,544.05396,311.18024,544.05396C311.37457,544.05396,311.6938,543.98456,311.9159,543.8874C312.12408,543.7902,312.8042,543.7208,313.41492,543.7069C315.46912,543.6792,316.1076,543.15173,316.2325,541.38904L316.3019,540.45905L316.91263,540.54236C317.81482,540.66724,317.67603,540.3341,316.46848,539.51526C315.09436,538.5714,315.09436,538.11334,316.46848,538.3771C317.8426,538.6269,318.05078,538.18274,316.85712,537.58594C316.41296,537.36383,316.0382,537.1834,316.02432,537.16956C315.99658,537.16956,316.0382,536.9752,316.1076,536.73926C316.3019,536.073,316.12146,535.5872,315.4136,534.85156C315.03885,534.46295,314.7335,534.10205,314.7335,534.0465C314.7335,533.9077,316.177,531.77026,316.63504,531.2289C318.17572,529.38293,319.7719,527.89777,321.0627,527.07886L321.6457,526.71796L321.7845,527.0927C321.9788,527.5924,323.46393,532.1727,324.10242,534.2686C324.38,535.1847,324.6576,536.05914,324.72702,536.2118C324.79642,536.3645,325.0046,537.04456,325.21283,537.7386C325.42102,538.4187,325.67084,539.2376,325.768,539.54297C325.87903,539.8483,326.28156,541.12524,326.6702,542.38837C327.05884,543.6514,327.503,545.0533,327.64178,545.51135C327.79446,545.96936,328.14148,547.0659,328.40518,547.9403C328.6828,548.81476,329.18246,550.3832,329.51556,551.4103C329.8487,552.4374,330.279,553.83923,330.48718,554.53326C330.6815,555.2134,330.91745,555.90735,331.0146,556.06006C331.12564,556.2405,331.15338,557.0039,331.13953,558.39185C331.0979,560.3767,331.0979,560.45996,331.47266,561.18176C332.06946,562.37537,333.166,563.6246,333.95715,564.0271C334.83157,564.4574,335.9975,564.5684,336.69147,564.277C337.26056,564.041,337.80188,563.3192,338.17664,562.2921C338.44037,561.52875,338.5514,561.501,339.5785,561.8896C339.92548,562.02844,340.57785,562.1394,341.04974,562.1394C342.50714,562.1533,343.39545,561.3344,343.81186,559.57166C344.10333,558.2947,344.07556,557.7534,343.58978,556.61523C343.25665,555.8102,342.9652,555.3938,342.20178,554.63043C341.42453,553.85315,341.17468,553.4923,340.8832,552.71497C340.56396,551.8683,339.73117,549.6892,339.06494,548.0097C338.95392,547.70435,338.77347,547.2324,338.6763,546.96875C338.17664,545.6362,337.3022,543.4016,337.20502,543.15173C337.0246,542.73535,336.09467,540.2925,335.96973,539.89C335.90033,539.6957,335.7199,539.196,335.55334,538.7796C335.38678,538.36316,335.09528,537.572,334.90097,537.04456C334.70667,536.5033,334.42908,535.8093,334.29025,535.49005C334.13757,535.1708,334.02655,534.8377,334.02655,534.7544C334.02655,534.685,333.971,534.5046,333.88776,534.3658C333.81836,534.24084,333.61014,533.7273,333.41583,533.22766C332.8329,531.6453,331.11176,527.20374,330.25122,524.9968C330.01526,524.4,329.87646,523.87256,329.9181,523.8171C330.0985,523.6366,331.72247,523.40063,332.91614,523.3868C333.56848,523.3868,334.8177,523.4701,335.69214,523.5811 Z M327.30865,524.71924C327.4197,525.01074,327.5724,525.3716,327.64178,525.5243C327.71118,525.677,328.3358,527.176,329.0298,528.85547C330.22345,531.7147,330.6676,532.7696,330.97296,533.4358C331.04236,533.5885,331.66696,535.0598,332.37482,536.69763C333.06885,538.33545,333.7212,539.8622,333.81836,540.09814C333.92938,540.32025,334.2625,541.13916,334.58173,541.9026C334.90097,542.66595,335.248,543.47095,335.359,543.7069C335.45618,543.929,336.10852,545.4697,336.8164,547.10754C337.51038,548.74536,338.3987,550.79956,338.75958,551.66016C339.13434,552.5207,339.4397,553.28406,339.4397,553.3674C339.4397,553.43677,339.21762,553.4923,338.95392,553.4923C337.96844,553.4923,336.98297,554.4083,336.64984,555.6437C336.44165,556.4209,336.41388,556.44867,336.02524,556.1433C335.23407,555.51874,334.0404,555.3244,332.98553,555.6437C332.73572,555.7131,332.68018,555.6437,332.52753,554.99133C332.3332,554.1585,332.1944,553.6311,331.88904,552.5207C331.3616,550.5914,330.93134,548.9813,330.50104,547.31573C330.23734,546.3164,329.89032,545.01166,329.72375,544.40094C329.33514,542.94354,328.76605,540.7644,327.86386,537.1834C327.44745,535.57336,326.97556,533.7967,326.809,533.22766C326.64246,532.65857,326.35095,531.61755,326.1844,530.93744C325.93457,529.95197,325.12952,527.0927,324.62985,525.4271C324.56046,525.19116,325.17117,524.80255,326.23993,524.4139C326.98944,524.1363,327.0866,524.16406,327.30865,524.71924 Z M269.54056,534.31024C270.66483,537.22504,272.66354,544.6785,272.38593,544.94226C272.3443,544.9839,271.91403,544.9562,271.42822,544.8867C270.92856,544.8173,269.6516,544.6647,268.58286,544.53973C264.752,544.0956,264.2801,544.04004,264.15515,543.91516C263.8498,543.6098,265.05737,540.4452,267.91663,534.0604C268.55508,532.64465,268.63837,532.50586,268.79105,532.603C268.86044,532.64465,269.19357,533.4081,269.54056,534.31024 Z M298.9104,540.81995C298.9104,540.8616,298.79938,541.02814,298.67444,541.16693C298.50787,541.34735,298.42462,541.70825,298.41074,542.2634C298.39685,542.7631,298.28583,543.23505,298.14703,543.44324C297.85553,543.90125,295.8985,545.81665,295.44043,546.1221C294.94077,546.4413,291.91495,548.81476,291.8039,548.9674C291.7484,549.0507,291.679,549.0785,291.62347,549.0368C291.58185,548.9952,292.0954,548.2318,292.7616,547.35736C297.32813,541.3751,297.73062,540.8755,298.07764,540.81995C298.67444,540.7228,298.9104,540.7228,298.9104,540.81995 Z M253.66196,541.6111C253.66196,541.98584,253.3566,542.16626,253.13452,541.9442C253.0235,541.8331,253.0235,541.70825,253.12065,541.52783C253.31497,541.16693,253.66196,541.20856,253.66196,541.6111 Z M252.13518,542.1802C252.03802,542.30505,251.92697,542.3606,251.88535,542.319C251.84369,542.2912,251.89922,542.16626,251.99637,542.0414C252.09354,541.91644,252.20457,541.86096,252.24622,541.9026C252.28786,541.9303,252.23233,542.05524,252.13518,542.1802 Z M267.12546,545.49744C267.99988,545.6224,269.55444,545.775,270.5538,545.8722C271.60867,545.9555,272.45532,546.10815,272.52472,546.1914C272.69128,546.38574,273.01053,548.34283,272.8995,548.45386C272.85785,548.4955,272.64966,548.4678,272.44147,548.38446C271.33105,547.9681,265.62643,545.6224,265.39047,545.4697C265.01572,545.2476,265.19617,545.2615,267.12546,545.49744 Z M252.96797,546.1498C252.96797,546.42737,252.75977,546.5107,252.62097,546.2747C252.49606,546.0665,252.66261,545.67786,252.82916,545.78894C252.89856,545.83057,252.96797,545.99713,252.96797,546.1498 Z M254.21716,546.8438C254.21716,547.0104,254.12,547.10754,253.93956,547.10754C253.6342,547.10754,253.57867,546.82996,253.82852,546.5801C254.03671,546.3719,254.21716,546.4968,254.21716,546.8438 Z M267.99988,549.1201C272.6219,551.4519,272.77457,551.5491,272.3998,552.2292C272.31653,552.39575,272.14996,552.5207,272.03894,552.5207C271.91403,552.5207,270.52603,552.0904,268.9576,551.563C267.3753,551.0355,265.44598,550.41095,264.6687,550.175L263.23907,549.73083L263.23907,548.3706C263.23907,547.1214,263.30847,546.7605,263.5028,546.85767C263.54443,546.88544,265.57092,547.8987,267.99988,549.1201 Z M251.99637,548.7176C252.49606,548.8425,253.06512,548.9674,253.2872,549.00903C253.4954,549.0507,253.70361,549.134,253.74524,549.20337C253.89792,549.45325,253.6342,549.8696,253.24557,550.0084C253.00961,550.0778,252.67648,550.3138,252.49606,550.5359C252.17682,550.91064,252.16293,550.91064,251.5661,550.7163C250.78882,550.48035,249.6368,549.91125,249.6368,549.77246C249.6368,549.63367,250.78882,548.5371,250.95538,548.52325C251.03867,548.5094,251.4967,548.60657,251.99637,548.7176 Z M265.18228,553.10364C265.90402,553.3396,266.6258,553.57556,266.77847,553.64496C266.93115,553.70044,268.12482,554.0891,269.41565,554.5055C270.97018,554.99133,271.7752,555.3244,271.7891,555.44934C271.7891,555.56036,271.88626,555.8102,271.98343,556.01843C272.12222,556.3237,272.1361,556.49036,272.01117,556.754C271.87238,557.04553,271.88626,557.1704,272.03894,557.4203C272.31653,557.8367,272.3304,559.2385,272.05283,560.1546C271.92792,560.57104,271.7752,561.09845,271.7058,561.3344C271.4421,562.34766,271.33105,562.48645,270.73422,562.5836C270.33173,562.653,270.09576,562.62524,269.9292,562.48645C269.80426,562.37537,268.91595,561.7925,267.97214,561.1956C266.2649,560.113,266.25104,560.0991,266.6813,559.98804C266.91727,559.91864,267.15323,559.8076,267.20874,559.71045C267.3753,559.46063,266.8201,559.1553,266.29266,559.2247C265.64032,559.29407,265.05737,558.8083,264.73813,557.90607C264.6132,557.51746,264.3911,557.04553,264.25232,556.83734C263.68323,556.0045,263.23907,554.3667,263.23907,553.10364C263.23907,552.40967,263.01703,552.40967,265.18228,553.10364 Z M286.75165,558.82214C286.9043,560.00195,286.61285,561.1401,286.00214,561.7925C285.69678,562.1117,285.69678,562.1117,285.39142,561.84796C285.2387,561.70917,284.5725,561.1262,283.9201,560.57104C283.26776,560.00195,282.74036,559.4884,282.74036,559.41895C282.74036,559.3496,283.43433,559.072,284.26715,558.8083C285.1138,558.54456,285.9466,558.2808,286.14093,558.2114C286.3352,558.1559,286.52954,558.08655,286.57117,558.08655C286.6267,558.07263,286.70996,558.40576,286.75165,558.82214 Z M282.3656,562.306C284.97498,564.1798,284.83618,564.041,284.628,564.72107C284.3643,565.60944,284.01727,566.15076,283.50372,566.49774C282.92078,566.90027,282.3656,566.90027,281.49115,566.4839C280.17255,565.85925,280.24194,566.0397,280.2281,563.36084C280.2281,561.1262,280.24194,560.9874,280.4779,561.0707C280.6167,561.1123,281.46338,561.66754,282.3656,562.306 Z"/> </g> <g style="fill:rgb(0,0,0); fill-opacity:1.0; stroke-linejoin: miter"> <path d="M280.72775,390.52844C280.72775,390.66727,280.99146,390.87546,281.07477,390.80606C281.08862,390.7783,281.0331,390.66727,280.92206,390.5701C280.81104,390.47293,280.72775,390.45905,280.72775,390.52844 Z"/> </g> </g> </g> </svg>